<svg id="visual" viewBox="0 0 900 200" width="900" height="200" xmlns="http://www.w3.org/2000/svg" xmlns:xlink="http://www.w3.org/1999/xlink" version="1.1"><rect x="0" y="0" width="900" height="200" fill="#D4EBF8"></rect><path d="M0 151L16.7 145.7C33.3 140.3 66.7 129.7 100 129.2C133.3 128.7 166.7 138.3 200 145.8C233.3 153.3 266.7 158.7 300 153.5C333.3 148.3 366.7 132.7 400 128.5C433.3 124.3 466.7 131.7 500 132.5C533.3 133.3 566.7 127.7 600 122.8C633.3 118 666.7 114 700 116C733.3 118 766.7 126 800 133C833.3 140 866.7 146 883.3 149L900 152L900 0L883.3 0C866.7 0 833.3 0 800 0C766.7 0 733.3 0 700 0C666.7 0 633.3 0 600 0C566.7 0 533.3 0 500 0C466.7 0 433.3 0 400 0C366.7 0 333.3 0 300 0C266.7 0 233.3 0 200 0C166.7 0 133.3 0 100 0C66.7 0 33.3 0 16.7 0L0 0Z" fill="#D4EBF8"></path><path d="M0 107L16.7 114C33.3 121 66.7 135 100 139.3C133.3 143.7 166.7 138.3 200 129.8C233.3 121.3 266.7 109.7 300 104.3C333.3 99 366.7 100 400 103.8C433.3 107.7 466.7 114.3 500 117C533.3 119.7 566.7 118.3 600 122.5C633.3 126.7 666.7 136.3 700 137.3C733.3 138.3 766.7 130.7 800 131.3C833.3 132 866.7 141 883.3 145.5L900 150L900 0L883.3 0C866.7 0 833.3 0 800 0C766.7 0 733.3 0 700 0C666.7 0 633.3 0 600 0C566.7 0 533.3 0 500 0C466.7 0 433.3 0 400 0C366.7 0 333.3 0 300 0C266.7 0 233.3 0 200 0C166.7 0 133.3 0 100 0C66.7 0 33.3 0 16.7 0L0 0Z" fill="#91badc"></path><path d="M0 118L16.7 116.3C33.3 114.7 66.7 111.3 100 110C133.3 108.7 166.7 109.3 200 106C233.3 102.7 266.7 95.3 300 92.5C333.3 89.7 366.7 91.3 400 96.3C433.3 101.3 466.7 109.7 500 114.7C533.3 119.7 566.7 121.3 600 123.2C633.3 125 666.7 127 700 125.2C733.3 123.3 766.7 117.7 800 113C833.3 108.3 866.7 104.7 883.3 102.8L900 101L900 0L883.3 0C866.7 0 833.3 0 800 0C766.7 0 733.3 0 700 0C666.7 0 633.3 0 600 0C566.7 0 533.3 0 500 0C466.7 0 433.3 0 400 0C366.7 0 333.3 0 300 0C266.7 0 233.3 0 200 0C166.7 0 133.3 0 100 0C66.7 0 33.3 0 16.7 0L0 0Z" fill="#588ac0"></path><path d="M0 72L16.7 75.7C33.3 79.3 66.7 86.7 100 89.2C133.3 91.7 166.7 89.3 200 91.5C233.3 93.7 266.7 100.3 300 103.8C333.3 107.3 366.7 107.7 400 107.5C433.3 107.3 466.7 106.7 500 100.7C533.3 94.7 566.7 83.3 600 82.8C633.3 82.3 666.7 92.7 700 92.7C733.3 92.7 766.7 82.3 800 80.8C833.3 79.3 866.7 86.7 883.3 90.3L900 94L900 0L883.3 0C866.7 0 833.3 0 800 0C766.7 0 733.3 0 700 0C666.7 0 633.3 0 600 0C566.7 0 533.3 0 500 0C466.7 0 433.3 0 400 0C366.7 0 333.3 0 300 0C266.7 0 233.3 0 200 0C166.7 0 133.3 0 100 0C66.7 0 33.3 0 16.7 0L0 0Z" fill="#285aa1"></path><path d="M0 64L16.7 63.5C33.3 63 66.7 62 100 65.5C133.3 69 166.7 77 200 78C233.3 79 266.7 73 300 70.7C333.3 68.3 366.7 69.7 400 73.8C433.3 78 466.7 85 500 84.2C533.3 83.3 566.7 74.7 600 73C633.3 71.3 666.7 76.7 700 80.2C733.3 83.7 766.7 85.3 800 86.5C833.3 87.7 866.7 88.3 883.3 88.7L900 89L900 0L883.3 0C866.7 0 833.3 0 800 0C766.7 0 733.3 0 700 0C666.7 0 633.3 0 600 0C566.7 0 533.3 0 500 0C466.7 0 433.3 0 400 0C366.7 0 333.3 0 300 0C266.7 0 233.3 0 200 0C166.7 0 133.3 0 100 0C66.7 0 33.3 0 16.7 0L0 0Z" fill="#1f509a"></path><path d="M0 67L16.7 65.8C33.3 64.7 66.7 62.3 100 59.3C133.3 56.3 166.7 52.7 200 55.7C233.3 58.7 266.7 68.3 300 69.2C333.3 70 366.7 62 400 57.2C433.3 52.3 466.7 50.7 500 52.7C533.3 54.7 566.7 60.3 600 60.2C633.3 60 666.7 54 700 52.5C733.3 51 766.7 54 800 55.8C833.3 57.7 866.7 58.3 883.3 58.7L900 59L900 0L883.3 0C866.7 0 833.3 0 800 0C766.7 0 733.3 0 700 0C666.7 0 633.3 0 600 0C566.7 0 533.3 0 500 0C466.7 0 433.3 0 400 0C366.7 0 333.3 0 300 0C266.7 0 233.3 0 200 0C166.7 0 133.3 0 100 0C66.7 0 33.3 0 16.7 0L0 0Z" fill="#285aa1"></path><path d="M0 35L16.7 35.3C33.3 35.7 66.7 36.3 100 37.5C133.3 38.7 166.7 40.3 200 44.8C233.3 49.3 266.7 56.7 300 56.8C333.3 57 366.7 50 400 47.5C433.3 45 466.7 47 500 48.5C533.3 50 566.7 51 600 51.3C633.3 51.7 666.7 51.3 700 49.5C733.3 47.7 766.7 44.3 800 44.3C833.3 44.3 866.7 47.7 883.3 49.3L900 51L900 0L883.3 0C866.7 0 833.3 0 800 0C766.7 0 733.3 0 700 0C666.7 0 633.3 0 600 0C566.7 0 533.3 0 500 0C466.7 0 433.3 0 400 0C366.7 0 333.3 0 300 0C266.7 0 233.3 0 200 0C166.7 0 133.3 0 100 0C66.7 0 33.3 0 16.7 0L0 0Z" fill="#588ac0"></path><path d="M0 45L16.7 44.7C33.3 44.3 66.7 43.7 100 41C133.3 38.3 166.7 33.7 200 32.8C233.3 32 266.7 35 300 37.8C333.3 40.7 366.7 43.3 400 43.3C433.3 43.3 466.7 40.7 500 39.2C533.3 37.7 566.7 37.3 600 36.8C633.3 36.3 666.7 35.7 700 33.8C733.3 32 766.7 29 800 28.3C833.3 27.7 866.7 29.3 883.3 30.2L900 31L900 0L883.3 0C866.7 0 833.3 0 800 0C766.7 0 733.3 0 700 0C666.7 0 633.3 0 600 0C566.7 0 533.3 0 500 0C466.7 0 433.3 0 400 0C366.7 0 333.3 0 300 0C266.7 0 233.3 0 200 0C166.7 0 133.3 0 100 0C66.7 0 33.3 0 16.7 0L0 0Z" fill="#D4EBF8"></path><path d="M0 15L16.7 16.2C33.3 17.3 66.7 19.7 100 19.8C133.3 20 166.7 18 200 16.5C233.3 15 266.7 14 300 15.7C333.3 17.3 366.7 21.7 400 21.5C433.3 21.3 466.7 16.7 500 14.2C533.3 11.7 566.7 11.3 600 13.8C633.3 16.3 666.7 21.7 700 22.2C733.3 22.7 766.7 18.3 800 17.2C833.3 16 866.7 18 883.3 19L900 20L900 0L883.3 0C866.7 0 833.3 0 800 0C766.7 0 733.3 0 700 0C666.7 0 633.3 0 600 0C566.7 0 533.3 0 500 0C466.7 0 433.3 0 400 0C366.7 0 333.3 0 300 0C266.7 0 233.3 0 200 0C166.7 0 133.3 0 100 0C66.7 0 33.3 0 16.7 0L0 0Z" fill="#D4EBF8"></path></svg>