<svg id="visual" viewBox="0 0 900 200" width="900" height="200" xmlns="http://www.w3.org/2000/svg" xmlns:xlink="http://www.w3.org/1999/xlink" version="1.1"><rect x="0" y="0" width="900" height="200" fill="#D4EBF8"></rect><path d="M0 114L21.5 114.3C43 114.7 86 115.3 128.8 120C171.7 124.7 214.3 133.3 257.2 137.2C300 141 343 140 385.8 140C428.7 140 471.3 141 514.2 142.8C557 144.7 600 147.3 642.8 150.3C685.7 153.3 728.3 156.7 771.2 156.7C814 156.7 857 153.3 878.5 151.7L900 150L900 0L878.5 0C857 0 814 0 771.2 0C728.3 0 685.7 0 642.8 0C600 0 557 0 514.2 0C471.3 0 428.7 0 385.8 0C343 0 300 0 257.2 0C214.3 0 171.7 0 128.8 0C86 0 43 0 21.5 0L0 0Z" fill="#d4ebf8"></path><path d="M0 134L21.5 133.7C43 133.3 86 132.7 128.8 127.5C171.7 122.3 214.3 112.7 257.2 115.8C300 119 343 135 385.8 137.2C428.7 139.3 471.3 127.7 514.2 121C557 114.3 600 112.7 642.8 110.3C685.7 108 728.3 105 771.2 103.5C814 102 857 102 878.5 102L900 102L900 0L878.5 0C857 0 814 0 771.2 0C728.3 0 685.7 0 642.8 0C600 0 557 0 514.2 0C471.3 0 428.7 0 385.8 0C343 0 300 0 257.2 0C214.3 0 171.7 0 128.8 0C86 0 43 0 21.5 0L0 0Z" fill="#98c0df"></path><path d="M0 113L21.5 110.3C43 107.7 86 102.3 128.8 104.8C171.7 107.3 214.3 117.7 257.2 117.7C300 117.7 343 107.3 385.8 107.2C428.7 107 471.3 117 514.2 122.8C557 128.7 600 130.3 642.8 124.2C685.7 118 728.3 104 771.2 100.2C814 96.3 857 102.7 878.5 105.8L900 109L900 0L878.5 0C857 0 814 0 771.2 0C728.3 0 685.7 0 642.8 0C600 0 557 0 514.2 0C471.3 0 428.7 0 385.8 0C343 0 300 0 257.2 0C214.3 0 171.7 0 128.8 0C86 0 43 0 21.5 0L0 0Z" fill="#6494c6"></path><path d="M0 108L21.5 109.2C43 110.3 86 112.7 128.8 114.3C171.7 116 214.3 117 257.2 116C300 115 343 112 385.8 108.3C428.7 104.7 471.3 100.3 514.2 98C557 95.7 600 95.3 642.8 98C685.7 100.7 728.3 106.3 771.2 110C814 113.7 857 115.3 878.5 116.2L900 117L900 0L878.5 0C857 0 814 0 771.2 0C728.3 0 685.7 0 642.8 0C600 0 557 0 514.2 0C471.3 0 428.7 0 385.8 0C343 0 300 0 257.2 0C214.3 0 171.7 0 128.8 0C86 0 43 0 21.5 0L0 0Z" fill="#3769ab"></path><path d="M0 99L21.5 97.3C43 95.7 86 92.3 128.8 91.5C171.7 90.7 214.3 92.3 257.2 89.2C300 86 343 78 385.8 73.7C428.7 69.3 471.3 68.7 514.2 74.3C557 80 600 92 642.8 97.7C685.7 103.3 728.3 102.7 771.2 98.7C814 94.7 857 87.3 878.5 83.7L900 80L900 0L878.5 0C857 0 814 0 771.2 0C728.3 0 685.7 0 642.8 0C600 0 557 0 514.2 0C471.3 0 428.7 0 385.8 0C343 0 300 0 257.2 0C214.3 0 171.7 0 128.8 0C86 0 43 0 21.5 0L0 0Z" fill="#1f509a"></path><path d="M0 82L21.5 79.8C43 77.7 86 73.3 128.8 71.2C171.7 69 214.3 69 257.2 70.3C300 71.7 343 74.3 385.8 75.2C428.7 76 471.3 75 514.2 73C557 71 600 68 642.8 70C685.7 72 728.3 79 771.2 83.2C814 87.3 857 88.7 878.5 89.3L900 90L900 0L878.5 0C857 0 814 0 771.2 0C728.3 0 685.7 0 642.8 0C600 0 557 0 514.2 0C471.3 0 428.7 0 385.8 0C343 0 300 0 257.2 0C214.3 0 171.7 0 128.8 0C86 0 43 0 21.5 0L0 0Z" fill="#1f509a"></path><path d="M0 61L21.5 58.3C43 55.7 86 50.3 128.8 49.5C171.7 48.7 214.3 52.3 257.2 53.8C300 55.3 343 54.7 385.8 52.7C428.7 50.7 471.3 47.3 514.2 48.7C557 50 600 56 642.8 60.5C685.7 65 728.3 68 771.2 64.8C814 61.7 857 52.3 878.5 47.7L900 43L900 0L878.5 0C857 0 814 0 771.2 0C728.3 0 685.7 0 642.8 0C600 0 557 0 514.2 0C471.3 0 428.7 0 385.8 0C343 0 300 0 257.2 0C214.3 0 171.7 0 128.8 0C86 0 43 0 21.5 0L0 0Z" fill="#3769ab"></path><path d="M0 39L21.5 38.5C43 38 86 37 128.8 38.2C171.7 39.3 214.3 42.7 257.2 42.5C300 42.3 343 38.7 385.8 37.5C428.7 36.3 471.3 37.7 514.2 37.7C557 37.7 600 36.3 642.8 38.2C685.7 40 728.3 45 771.2 48.7C814 52.3 857 54.7 878.5 55.8L900 57L900 0L878.5 0C857 0 814 0 771.2 0C728.3 0 685.7 0 642.8 0C600 0 557 0 514.2 0C471.3 0 428.7 0 385.8 0C343 0 300 0 257.2 0C214.3 0 171.7 0 128.8 0C86 0 43 0 21.5 0L0 0Z" fill="#6494c6"></path><path d="M0 31L21.5 30.7C43 30.3 86 29.7 128.8 29.3C171.7 29 214.3 29 257.2 29.3C300 29.7 343 30.3 385.8 31C428.7 31.7 471.3 32.3 514.2 32.5C557 32.7 600 32.3 642.8 33.8C685.7 35.3 728.3 38.7 771.2 37.2C814 35.7 857 29.3 878.5 26.2L900 23L900 0L878.5 0C857 0 814 0 771.2 0C728.3 0 685.7 0 642.8 0C600 0 557 0 514.2 0C471.3 0 428.7 0 385.8 0C343 0 300 0 257.2 0C214.3 0 171.7 0 128.8 0C86 0 43 0 21.5 0L0 0Z" fill="#98c0df"></path><path d="M0 9L21.5 10.3C43 11.7 86 14.3 128.8 16C171.7 17.7 214.3 18.3 257.2 17.5C300 16.7 343 14.3 385.8 13.7C428.7 13 471.3 14 514.2 13.3C557 12.7 600 10.3 642.8 11C685.7 11.7 728.3 15.3 771.2 16.7C814 18 857 17 878.5 16.5L900 16L900 0L878.5 0C857 0 814 0 771.2 0C728.3 0 685.7 0 642.8 0C600 0 557 0 514.2 0C471.3 0 428.7 0 385.8 0C343 0 300 0 257.2 0C214.3 0 171.7 0 128.8 0C86 0 43 0 21.5 0L0 0Z" fill="#d4ebf8"></path></svg>